<?xml version="1.0" standalone="no"?>
<!DOCTYPE svg PUBLIC "-//W3C//DTD SVG 20010904//EN"
 "http://www.w3.org/TR/2001/REC-SVG-20010904/DTD/svg10.dtd">
<svg version="1.0" xmlns="http://www.w3.org/2000/svg"
 width="512.000000pt" height="512.000000pt" viewBox="0 0 512.000000 512.000000"
 preserveAspectRatio="xMidYMid meet">
<metadata>
Created by potrace 1.14, written by Peter Selinger 2001-2017
</metadata>
<g transform="translate(0.000000,512.000000) scale(0.100000,-0.100000)"
fill="#000000" stroke="none">
<path d="M1308 4693 c-61 -12 -164 -54 -212 -85 -44 -29 -128 -123 -162 -181
-20 -34 -35 -62 -34 -62 2 0 -5 -25 -16 -55 -17 -51 -18 -93 -19 -580 0 -570
0 -564 58 -690 36 -77 124 -180 186 -216 17 -10 31 -22 31 -26 0 -4 5 -8 10
-8 6 0 16 -5 23 -10 12 -11 165 -119 212 -150 96 -64 181 -125 183 -132 2 -4
7 -6 12 -3 4 3 10 -1 13 -9 4 -9 -23 -34 -80 -73 -46 -32 -90 -62 -96 -68 -7
-5 -32 -23 -57 -40 -25 -16 -54 -38 -64 -47 -11 -10 -28 -20 -38 -24 -10 -3
-18 -10 -18 -15 0 -5 -4 -9 -10 -9 -9 0 -93 -59 -168 -117 -59 -46 -134 -157
-168 -248 -26 -71 -30 -152 -29 -560 2 -406 3 -422 25 -490 28 -87 77 -165
147 -233 29 -28 55 -52 58 -52 2 0 26 -13 52 -28 104 -60 254 -84 367 -58 31
8 59 14 62 14 17 1 114 47 114 54 0 4 5 8 10 8 6 0 35 18 65 40 30 22 59 40
65 40 5 0 10 5 10 10 0 6 6 10 14 10 8 0 16 4 18 8 2 5 30 26 63 47 33 22 62
42 65 45 3 3 23 17 45 30 22 13 42 27 45 30 5 7 299 208 328 225 9 6 19 12 22
15 3 3 52 37 110 75 58 39 107 72 110 75 3 4 55 39 115 79 61 41 112 78 113
82 2 5 8 9 13 9 9 0 186 119 324 218 33 23 68 45 78 49 9 3 17 9 17 14 0 5 6
9 14 9 8 0 16 7 20 15 3 8 10 15 16 15 12 0 73 41 78 53 2 4 10 7 18 7 8 0 14
5 14 10 0 6 7 10 15 10 8 0 15 4 15 8 0 4 22 21 50 37 27 17 50 33 50 38 0 4
5 7 12 7 6 0 29 14 52 31 23 16 127 88 231 159 105 72 195 133 200 138 6 4 31
22 57 40 87 60 161 173 185 282 10 43 6 176 -7 216 -22 73 -62 143 -109 191
-56 57 -54 56 -211 163 -69 46 -131 90 -138 97 -7 7 -17 13 -22 13 -5 0 -15 6
-22 13 -7 7 -47 35 -88 62 -41 28 -77 52 -80 55 -3 3 -36 26 -75 52 -38 26
-110 75 -160 109 -49 34 -117 80 -150 103 -33 22 -61 44 -63 48 -2 5 -8 8 -14
8 -6 0 -27 14 -48 30 -21 17 -42 30 -48 30 -6 0 -12 4 -14 8 -1 5 -49 40 -105
77 -57 37 -103 72 -103 77 0 4 -5 8 -10 8 -10 0 -90 48 -100 61 -5 5 -226 157
-276 189 -12 8 -66 45 -119 83 -53 37 -100 67 -106 67 -5 0 -9 4 -9 8 0 5 -16
17 -35 28 -19 10 -35 22 -35 26 0 5 -7 8 -15 8 -8 0 -15 5 -15 10 0 6 -6 10
-14 10 -8 0 -16 3 -18 8 -1 4 -46 36 -98 72 -52 35 -96 68 -98 72 -2 4 -8 8
-13 8 -5 0 -40 23 -79 50 -39 28 -74 50 -79 50 -5 0 -14 7 -21 15 -21 25 -130
82 -190 99 -76 22 -172 25 -252 9z"/>
</g>
</svg>
